<?xml version="1.0" standalone="no"?>
<!DOCTYPE svg PUBLIC "-//W3C//DTD SVG 20010904//EN"
 "http://www.w3.org/TR/2001/REC-SVG-20010904/DTD/svg10.dtd">
<svg version="1.0" xmlns="http://www.w3.org/2000/svg"
 width="330.000000pt" height="150.000000pt" viewBox="0 0 330.000000 150.000000"
 preserveAspectRatio="xMidYMid meet" class="logo_rr">

<g transform="translate(0.000000,150.000000) scale(0.100000,-0.100000)"
 stroke="none" fill="#ff9900">
<path d="M597 1154 c-4 -4 -7 -16 -7 -26 0 -13 7 -18 26 -18 21 0 25 4 22 22
-3 23 -27 35 -41 22z"/>
<path d="M695 1120 c-3 -5 -1 -10 4 -10 6 0 11 5 11 10 0 6 -2 10 -4 10 -3 0
-8 -4 -11 -10z"/>
<path d="M350 1045 c-11 -13 -11 -19 3 -33 20 -19 41 -5 35 24 -4 24 -22 28
-38 9z"/>
<path d="M840 1045 c-11 -13 -11 -19 3 -33 20 -19 41 -5 35 24 -4 24 -22 28
-38 9z"/>
<path d="M1190 781 l0 -131 25 0 c24 0 25 3 25 55 0 47 3 55 19 55 12 0 30
-20 52 -55 25 -41 39 -55 56 -55 13 0 23 2 23 5 0 3 -16 29 -35 58 l-35 51 25
26 c14 14 25 38 25 51 0 43 -33 63 -111 67 l-69 4 0 -131z m134 67 c17 -27 -5
-52 -48 -56 l-36 -3 0 41 0 41 36 -3 c22 -2 42 -10 48 -20z"/>
<path d="M1422 810 c3 -93 6 -102 31 -128 23 -22 36 -27 77 -27 41 0 54 5 77
28 26 26 28 34 31 127 4 96 3 100 -17 100 -19 0 -21 -6 -21 -74 0 -110 -17
-146 -71 -146 -47 0 -59 26 -59 128 l0 92 -26 0 -26 0 4 -100z"/>
<path d="M1740 903 c-31 -12 -50 -37 -50 -68 0 -37 12 -50 65 -68 48 -17 64
-39 46 -61 -16 -19 -53 -21 -83 -5 -30 16 -50 -7 -23 -27 63 -47 155 -14 155
54 0 35 -22 57 -75 74 -32 11 -40 18 -40 38 0 24 3 25 53 23 40 -2 52 1 52 13
0 24 -61 41 -100 27z"/>
<path d="M1990 780 c0 -123 1 -130 20 -130 18 0 20 7 20 55 0 48 2 55 20 55
13 0 31 -19 55 -55 27 -43 40 -55 60 -55 l26 0 -40 59 -40 59 24 16 c25 17 34
66 17 93 -12 19 -60 33 -113 33 l-49 0 0 -130z m114 84 c19 -7 21 -45 4 -62
-7 -7 -27 -12 -45 -12 -32 0 -33 1 -33 40 0 38 2 40 29 40 16 0 36 -3 45 -6z"/>
<path d="M2273 895 c-83 -36 -95 -170 -19 -220 61 -40 155 -24 192 33 23 35
23 109 0 144 -34 52 -109 71 -173 43z m122 -50 c56 -55 18 -155 -60 -155 -51
0 -85 36 -85 90 0 54 34 90 85 90 25 0 44 -8 60 -25z"/>
<path d="M2570 885 c-5 -14 -28 -70 -50 -124 -22 -53 -40 -100 -40 -104 0 -4
9 -7 19 -7 13 0 23 11 31 35 11 35 12 35 71 35 58 0 59 -1 73 -35 10 -23 22
-35 35 -35 17 0 14 12 -32 130 -45 113 -55 130 -75 130 -15 0 -26 -8 -32 -25z
m58 -82 l20 -53 -45 0 c-41 0 -44 1 -37 23 12 41 34 90 38 86 2 -2 13 -28 24
-56z"/>
<path d="M2760 780 l0 -132 74 4 c90 4 124 25 146 86 13 37 13 47 0 84 -22 61
-56 82 -146 86 l-74 4 0 -132z m156 67 c21 -19 27 -32 27 -67 0 -59 -35 -90
-99 -90 l-44 0 0 90 0 90 44 0 c32 0 52 -6 72 -23z"/>
<path d="M450 785 c0 -87 3 -105 15 -105 11 0 15 11 15 40 0 32 4 40 18 40 9
0 28 -18 42 -40 14 -23 32 -40 43 -40 20 0 18 6 -19 56 -22 30 -22 31 -3 47
26 23 25 72 -3 91 -12 9 -42 16 -65 16 l-43 0 0 -105z m95 40 c0 -27 -4 -30
-32 -33 -32 -3 -33 -2 -33 33 0 35 1 36 33 33 28 -3 32 -6 32 -33z"/>
<path d="M630 785 c0 -87 3 -105 15 -105 11 0 15 11 15 40 0 32 4 40 18 40 11
0 27 -16 41 -40 14 -26 29 -40 42 -40 18 0 18 4 -10 44 -30 43 -30 44 -11 61
27 25 26 70 -2 89 -12 9 -42 16 -65 16 l-43 0 0 -105z m95 40 c0 -27 -4 -30
-32 -33 -32 -3 -33 -2 -33 33 0 35 1 36 33 33 28 -3 32 -6 32 -33z"/>
<path d="M940 869 c0 -5 5 -7 10 -4 6 3 10 8 10 11 0 2 -4 4 -10 4 -5 0 -10
-5 -10 -11z"/>
<path d="M244 795 c-8 -20 4 -35 27 -35 14 0 19 7 19 25 0 18 -5 25 -20 25
-11 0 -23 -7 -26 -15z"/>
<path d="M938 798 c-8 -21 2 -38 22 -38 19 0 30 17 23 38 -3 6 -13 12 -23 12
-10 0 -20 -6 -22 -12z"/>
<path d="M940 700 c0 -5 5 -10 11 -10 5 0 7 5 4 10 -3 6 -8 10 -11 10 -2 0 -4
-4 -4 -10z"/>
<path d="M350 555 c-11 -13 -11 -19 3 -33 20 -19 41 -5 35 24 -4 24 -22 28
-38 9z"/>
<path d="M840 555 c-11 -13 -11 -19 3 -33 20 -19 41 -5 35 24 -4 24 -22 28
-38 9z"/>
<path d="M592 438 c2 -15 10 -23 23 -23 13 0 21 8 23 23 3 18 -1 22 -23 22
-22 0 -26 -4 -23 -22z"/>
<path d="M695 450 c3 -5 8 -10 11 -10 2 0 4 5 4 10 0 6 -5 10 -11 10 -5 0 -7
-4 -4 -10z"/>
</g>
</svg>
