<?xml version="1.0" encoding="UTF-8"?>
<svg xmlns="http://www.w3.org/2000/svg" xmlns:xlink="http://www.w3.org/1999/xlink" width="250pt" height="100pt" viewBox="0 0 250 100" version="1.1">
<g id="surface1">
<path style=" stroke:none;fill-rule:nonzero;fill:rgb(0%,0%,0%);fill-opacity:1;" d="M 45.171875 23.003906 C 44.871094 23.269531 44.644531 24.070312 44.644531 24.734375 C 44.644531 25.597656 45.171875 25.929688 46.609375 25.929688 C 48.199219 25.929688 48.5 25.664062 48.273438 24.46875 C 48.046875 22.9375 46.230469 22.140625 45.171875 23.003906 Z M 45.171875 23.003906 "/>
<path style=" stroke:none;fill-rule:nonzero;fill:rgb(0%,0%,0%);fill-opacity:1;" d="M 52.585938 25.265625 C 52.359375 25.597656 52.511719 25.929688 52.890625 25.929688 C 53.34375 25.929688 53.722656 25.597656 53.722656 25.265625 C 53.722656 24.867188 53.570312 24.601562 53.421875 24.601562 C 53.191406 24.601562 52.816406 24.867188 52.585938 25.265625 Z M 52.585938 25.265625 "/>
<path style=" stroke:none;fill-rule:nonzero;fill:rgb(0%,0%,0%);fill-opacity:1;" d="M 26.484375 30.253906 C 25.652344 31.117188 25.652344 31.515625 26.710938 32.445312 C 28.222656 33.710938 29.8125 32.777344 29.359375 30.851562 C 29.054688 29.253906 27.695312 28.988281 26.484375 30.253906 Z M 26.484375 30.253906 "/>
<path style=" stroke:none;fill-rule:nonzero;fill:rgb(0%,0%,0%);fill-opacity:1;" d="M 63.558594 30.253906 C 62.726562 31.117188 62.726562 31.515625 63.785156 32.445312 C 65.300781 33.710938 66.886719 32.777344 66.433594 30.851562 C 66.132812 29.253906 64.769531 28.988281 63.558594 30.253906 Z M 63.558594 30.253906 "/>
<path style=" stroke:none;fill-rule:nonzero;fill:rgb(0%,0%,0%);fill-opacity:1;" d="M 90.042969 47.804688 L 90.042969 56.515625 L 91.933594 56.515625 C 93.75 56.515625 93.824219 56.316406 93.824219 52.859375 C 93.824219 49.734375 94.050781 49.203125 95.261719 49.203125 C 96.171875 49.203125 97.535156 50.53125 99.199219 52.859375 C 101.089844 55.585938 102.148438 56.515625 103.433594 56.515625 C 104.417969 56.515625 105.175781 56.382812 105.175781 56.183594 C 105.175781 55.984375 103.964844 54.253906 102.527344 52.328125 L 99.878906 48.9375 L 101.769531 47.207031 C 102.828125 46.277344 103.664062 44.679688 103.664062 43.816406 C 103.664062 40.957031 101.164062 39.628906 95.261719 39.363281 L 90.042969 39.097656 Z M 100.179688 43.351562 C 101.46875 45.144531 99.804688 46.808594 96.550781 47.074219 L 93.824219 47.273438 L 93.824219 41.820312 L 96.550781 42.019531 C 98.214844 42.152344 99.726562 42.6875 100.179688 43.351562 Z M 100.179688 43.351562 "/>
<path style=" stroke:none;fill-rule:nonzero;fill:rgb(0%,0%,0%);fill-opacity:1;" d="M 107.597656 45.878906 C 107.824219 52.0625 108.050781 52.660156 109.941406 54.386719 C 111.683594 55.851562 112.667969 56.183594 115.769531 56.183594 C 118.871094 56.183594 119.855469 55.851562 121.59375 54.320312 C 123.5625 52.59375 123.714844 52.0625 123.941406 45.878906 C 124.242188 39.496094 124.167969 39.230469 122.65625 39.230469 C 121.214844 39.230469 121.066406 39.628906 121.066406 44.148438 C 121.066406 51.460938 119.777344 53.855469 115.691406 53.855469 C 112.136719 53.855469 111.230469 52.128906 111.230469 45.347656 L 111.230469 39.230469 L 107.292969 39.230469 Z M 107.597656 45.878906 "/>
<path style=" stroke:none;fill-rule:nonzero;fill:rgb(0%,0%,0%);fill-opacity:1;" d="M 131.660156 39.695312 C 129.3125 40.492188 127.875 42.152344 127.875 44.214844 C 127.875 46.675781 128.785156 47.539062 132.792969 48.738281 C 136.425781 49.867188 137.636719 51.328125 136.273438 52.792969 C 135.0625 54.054688 132.265625 54.1875 129.992188 53.125 C 127.722656 52.0625 126.210938 53.589844 128.253906 54.921875 C 133.019531 58.046875 139.980469 55.851562 139.980469 51.328125 C 139.980469 49.003906 138.316406 47.539062 134.308594 46.410156 C 131.886719 45.679688 131.28125 45.210938 131.28125 43.882812 C 131.28125 42.289062 131.507812 42.222656 135.289062 42.355469 C 138.316406 42.488281 139.226562 42.289062 139.226562 41.488281 C 139.226562 39.894531 134.609375 38.761719 131.660156 39.695312 Z M 131.660156 39.695312 "/>
<path style=" stroke:none;fill-rule:nonzero;fill:rgb(0%,0%,0%);fill-opacity:1;" d="M 150.574219 47.871094 C 150.574219 56.050781 150.652344 56.515625 152.089844 56.515625 C 153.449219 56.515625 153.601562 56.050781 153.601562 52.859375 C 153.601562 49.667969 153.753906 49.203125 155.113281 49.203125 C 156.097656 49.203125 157.460938 50.464844 159.277344 52.859375 C 161.320312 55.71875 162.304688 56.515625 163.816406 56.515625 L 165.785156 56.515625 L 159.730469 48.671875 L 161.546875 47.605469 C 163.4375 46.476562 164.121094 43.21875 162.832031 41.421875 C 161.925781 40.160156 158.292969 39.230469 154.28125 39.230469 L 150.574219 39.230469 Z M 159.199219 42.289062 C 160.636719 42.753906 160.789062 45.277344 159.503906 46.410156 C 158.972656 46.875 157.460938 47.207031 156.097656 47.207031 C 153.675781 47.207031 153.601562 47.140625 153.601562 44.546875 C 153.601562 42.019531 153.753906 41.886719 155.796875 41.886719 C 157.007812 41.886719 158.519531 42.085938 159.199219 42.289062 Z M 159.199219 42.289062 "/>
<path style=" stroke:none;fill-rule:nonzero;fill:rgb(0%,0%,0%);fill-opacity:1;" d="M 171.988281 40.226562 C 165.707031 42.621094 164.800781 51.527344 170.550781 54.855469 C 175.167969 57.511719 182.277344 56.449219 185.078125 52.660156 C 186.820312 50.332031 186.820312 45.414062 185.078125 43.085938 C 182.507812 39.628906 176.832031 38.363281 171.988281 40.226562 Z M 181.21875 43.550781 C 185.457031 47.207031 182.582031 53.855469 176.679688 53.855469 C 172.820312 53.855469 170.25 51.460938 170.25 47.871094 C 170.25 44.28125 172.820312 41.886719 176.679688 41.886719 C 178.570312 41.886719 180.007812 42.421875 181.21875 43.550781 Z M 181.21875 43.550781 "/>
<path style=" stroke:none;fill-rule:nonzero;fill:rgb(0%,0%,0%);fill-opacity:1;" d="M 194.460938 40.890625 C 194.082031 41.820312 192.34375 45.546875 190.679688 49.136719 C 189.011719 52.660156 187.652344 55.785156 187.652344 56.050781 C 187.652344 56.316406 188.332031 56.515625 189.089844 56.515625 C 190.074219 56.515625 190.828125 55.785156 191.433594 54.1875 C 192.265625 51.863281 192.34375 51.863281 196.808594 51.863281 C 201.195312 51.863281 201.269531 51.929688 202.332031 54.1875 C 203.085938 55.71875 203.996094 56.515625 204.980469 56.515625 C 206.265625 56.515625 206.039062 55.71875 202.558594 47.871094 C 199.152344 40.359375 198.394531 39.230469 196.882812 39.230469 C 195.746094 39.230469 194.914062 39.761719 194.460938 40.890625 Z M 198.851562 46.34375 L 200.363281 49.867188 L 196.957031 49.867188 C 193.855469 49.867188 193.628906 49.800781 194.160156 48.335938 C 195.066406 45.613281 196.730469 42.355469 197.035156 42.621094 C 197.183594 42.753906 198.015625 44.480469 198.851562 46.34375 Z M 198.851562 46.34375 "/>
<path style=" stroke:none;fill-rule:nonzero;fill:rgb(0%,0%,0%);fill-opacity:1;" d="M 208.835938 47.871094 L 208.835938 56.648438 L 214.4375 56.382812 C 221.246094 56.117188 223.820312 54.722656 225.484375 50.664062 C 226.46875 48.203125 226.46875 47.539062 225.484375 45.078125 C 223.820312 41.023438 221.246094 39.628906 214.4375 39.363281 L 208.835938 39.097656 Z M 220.640625 43.417969 C 222.230469 44.679688 222.683594 45.546875 222.683594 47.871094 C 222.683594 51.796875 220.035156 53.855469 215.195312 53.855469 L 211.863281 53.855469 L 211.863281 41.886719 L 215.195312 41.886719 C 217.613281 41.886719 219.128906 42.289062 220.640625 43.417969 Z M 220.640625 43.417969 "/>
<path style=" stroke:none;fill-rule:nonzero;fill:rgb(0%,0%,0%);fill-opacity:1;" d="M 34.050781 47.539062 C 34.050781 53.324219 34.277344 54.519531 35.183594 54.519531 C 36.015625 54.519531 36.320312 53.789062 36.320312 51.863281 C 36.320312 49.734375 36.621094 49.203125 37.679688 49.203125 C 38.363281 49.203125 39.800781 50.398438 40.859375 51.863281 C 41.917969 53.390625 43.28125 54.519531 44.113281 54.519531 C 45.625 54.519531 45.476562 54.121094 42.675781 50.796875 C 41.011719 48.804688 41.011719 48.738281 42.449219 47.671875 C 44.414062 46.144531 44.339844 42.886719 42.222656 41.621094 C 41.3125 41.023438 39.042969 40.558594 37.304688 40.558594 L 34.050781 40.558594 Z M 41.238281 44.878906 C 41.238281 46.675781 40.933594 46.875 38.816406 47.074219 C 36.394531 47.273438 36.320312 47.207031 36.320312 44.878906 C 36.320312 42.554688 36.394531 42.488281 38.816406 42.6875 C 40.933594 42.886719 41.238281 43.085938 41.238281 44.878906 Z M 41.238281 44.878906 "/>
<path style=" stroke:none;fill-rule:nonzero;fill:rgb(0%,0%,0%);fill-opacity:1;" d="M 47.667969 47.539062 C 47.667969 53.324219 47.898438 54.519531 48.804688 54.519531 C 49.636719 54.519531 49.941406 53.789062 49.941406 51.863281 C 49.941406 49.734375 50.242188 49.203125 51.300781 49.203125 C 52.132812 49.203125 53.34375 50.265625 54.402344 51.863281 C 55.464844 53.589844 56.597656 54.519531 57.582031 54.519531 C 58.945312 54.519531 58.945312 54.253906 56.824219 51.597656 C 54.554688 48.738281 54.554688 48.671875 55.992188 47.539062 C 58.035156 45.878906 57.960938 42.886719 55.839844 41.621094 C 54.933594 41.023438 52.664062 40.558594 50.921875 40.558594 L 47.667969 40.558594 Z M 54.859375 44.878906 C 54.859375 46.675781 54.554688 46.875 52.4375 47.074219 C 50.015625 47.273438 49.941406 47.207031 49.941406 44.878906 C 49.941406 42.554688 50.015625 42.488281 52.4375 42.6875 C 54.554688 42.886719 54.859375 43.085938 54.859375 44.878906 Z M 54.859375 44.878906 "/>
<path style=" stroke:none;fill-rule:nonzero;fill:rgb(0%,0%,0%);fill-opacity:1;" d="M 71.125 41.953125 C 71.125 42.289062 71.503906 42.421875 71.882812 42.222656 C 72.335938 42.019531 72.640625 41.6875 72.640625 41.488281 C 72.640625 41.355469 72.335938 41.222656 71.882812 41.222656 C 71.503906 41.222656 71.125 41.554688 71.125 41.953125 Z M 71.125 41.953125 "/>
<path style=" stroke:none;fill-rule:nonzero;fill:rgb(0%,0%,0%);fill-opacity:1;" d="M 18.460938 46.875 C 17.855469 48.203125 18.765625 49.203125 20.503906 49.203125 C 21.566406 49.203125 21.941406 48.738281 21.941406 47.539062 C 21.941406 46.34375 21.566406 45.878906 20.429688 45.878906 C 19.597656 45.878906 18.691406 46.34375 18.460938 46.875 Z M 18.460938 46.875 "/>
<path style=" stroke:none;fill-rule:nonzero;fill:rgb(0%,0%,0%);fill-opacity:1;" d="M 70.972656 46.675781 C 70.371094 48.070312 71.125 49.203125 72.640625 49.203125 C 74.078125 49.203125 74.910156 48.070312 74.378906 46.675781 C 74.152344 46.277344 73.394531 45.878906 72.640625 45.878906 C 71.882812 45.878906 71.125 46.277344 70.972656 46.675781 Z M 70.972656 46.675781 "/>
<path style=" stroke:none;fill-rule:nonzero;fill:rgb(0%,0%,0%);fill-opacity:1;" d="M 71.125 53.191406 C 71.125 53.523438 71.503906 53.855469 71.957031 53.855469 C 72.335938 53.855469 72.488281 53.523438 72.261719 53.191406 C 72.035156 52.792969 71.65625 52.527344 71.429688 52.527344 C 71.277344 52.527344 71.125 52.792969 71.125 53.191406 Z M 71.125 53.191406 "/>
<path style=" stroke:none;fill-rule:nonzero;fill:rgb(0%,0%,0%);fill-opacity:1;" d="M 26.484375 62.832031 C 25.652344 63.695312 25.652344 64.097656 26.710938 65.027344 C 28.222656 66.289062 29.8125 65.359375 29.359375 63.429688 C 29.054688 61.835938 27.695312 61.570312 26.484375 62.832031 Z M 26.484375 62.832031 "/>
<path style=" stroke:none;fill-rule:nonzero;fill:rgb(0%,0%,0%);fill-opacity:1;" d="M 63.558594 62.832031 C 62.726562 63.695312 62.726562 64.097656 63.785156 65.027344 C 65.300781 66.289062 66.886719 65.359375 66.433594 63.429688 C 66.132812 61.835938 64.769531 61.570312 63.558594 62.832031 Z M 63.558594 62.832031 "/>
<path style=" stroke:none;fill-rule:nonzero;fill:rgb(0%,0%,0%);fill-opacity:1;" d="M 44.792969 70.613281 C 44.945312 71.609375 45.550781 72.140625 46.535156 72.140625 C 47.519531 72.140625 48.125 71.609375 48.273438 70.613281 C 48.5 69.414062 48.199219 69.148438 46.535156 69.148438 C 44.871094 69.148438 44.566406 69.414062 44.792969 70.613281 Z M 44.792969 70.613281 "/>
<path style=" stroke:none;fill-rule:nonzero;fill:rgb(0%,0%,0%);fill-opacity:1;" d="M 52.585938 69.8125 C 52.816406 70.144531 53.191406 70.480469 53.421875 70.480469 C 53.570312 70.480469 53.722656 70.144531 53.722656 69.8125 C 53.722656 69.414062 53.34375 69.148438 52.890625 69.148438 C 52.511719 69.148438 52.359375 69.414062 52.585938 69.8125 Z M 52.585938 69.8125 "/>
</g>
</svg>
