<?xml version="1.0" encoding="iso-8859-1"?>
<!-- Generator: Adobe Illustrator 19.1.0, SVG Export Plug-In . SVG Version: 6.00 Build 0)  -->
<svg version="1.1" id="Capa_1" xmlns="http://www.w3.org/2000/svg" xmlns:xlink="http://www.w3.org/1999/xlink" x="0px" y="0px"
	 viewBox="0 0 67.3 67.3" style="enable-background:new 0 0 67.3 67.3;" xml:space="preserve" fill="#ffffff" >
<g>
	<g stroke="none">
		<path d="M29.768,21.286c3.646-1.836,5.251-4.287,5.542-8.463c0.291-4.169-1.943-8.833-5.313-11.09C28.304,0.599,26.199,0,23.909,0
			c-5.571,0-11.034,3.423-12.706,7.964c-1.102,3.001-1,6.215-0.821,8.925c0.017,0.515,0.476,12.757,6.557,24.831l0.222,0.439
			c6.082,12.076,15.645,19.73,15.998,20.008c2.013,1.706,4.517,3.828,7.624,4.741c0.887,0.26,1.831,0.392,2.809,0.392
			c5.949,0,13.11-5.157,13.427-11.807c0.193-4.065-2.214-8.642-5.724-10.881c-1.999-1.276-3.679-1.846-5.445-1.846
			c-1.469,0-2.945,0.398-4.643,1.255c-0.463,0.232-0.89,0.346-1.305,0.346c-2.887,0-5.695-5.674-7.205-8.723l-1.264-2.511
			c-1.47-2.871-3.932-7.678-3.071-10.314C28.581,22.146,29.028,21.659,29.768,21.286z M27.872,34.957l1.24,2.462
			c2.158,4.36,5.418,10.948,10.79,10.948c1.04,0,2.084-0.26,3.104-0.773c2.428-1.224,3.689-1.173,6.137,0.391
			c2.301,1.468,4.006,4.683,3.881,7.319c-0.188,3.96-4.949,7.996-9.432,7.996c-0.598,0-1.164-0.077-1.682-0.229
			c-2.295-0.674-4.351-2.417-6.215-3.996c-0.093-0.073-9.291-7.455-14.961-18.714l-0.222-0.439
			c-5.67-11.259-6.127-23.045-6.135-23.228c-0.155-2.367-0.251-5.083,0.581-7.349C16.043,6.398,20.059,4,23.909,4
			c1.494,0,2.83,0.365,3.862,1.058c2.181,1.46,3.74,4.749,3.549,7.487c-0.195,2.799-0.947,3.958-3.352,5.169
			c-1.706,0.859-2.853,2.159-3.41,3.865C23.182,25.798,26.004,31.309,27.872,34.957z"/>
	</g>
</g>
<g>
</g>
<g>
</g>
<g>
</g>
<g>
</g>
<g>
</g>
<g>
</g>
<g>
</g>
<g>
</g>
<g>
</g>
<g>
</g>
<g>
</g>
<g>
</g>
<g>
</g>
<g>
</g>
<g>
</g>
</svg>
