<?xml version="1.0" encoding="UTF-8"?>
<svg xmlns="http://www.w3.org/2000/svg" xmlns:xlink="http://www.w3.org/1999/xlink" width="12pt" height="12pt" viewBox="0 0 14 15" version="1.1">
<g id="surface1">
<path style=" stroke:none;fill-rule:nonzero;fill:#023041;fill-opacity:1;" d="M 6.910156 4.179688 C 4.949219 4.179688 3.367188 5.703125 3.367188 7.585938 C 3.367188 9.472656 4.949219 10.992188 6.910156 10.992188 C 8.871094 10.992188 10.457031 9.472656 10.457031 7.585938 C 10.457031 5.703125 8.871094 4.179688 6.910156 4.179688 Z M 6.910156 9.800781 C 5.644531 9.800781 4.609375 8.804688 4.609375 7.585938 C 4.609375 6.363281 5.640625 5.371094 6.910156 5.371094 C 8.179688 5.371094 9.214844 6.363281 9.214844 7.585938 C 9.214844 8.804688 8.179688 9.800781 6.910156 9.800781 Z M 11.425781 4.042969 C 11.425781 4.480469 11.054688 4.832031 10.597656 4.832031 C 10.140625 4.832031 9.773438 4.476562 9.773438 4.042969 C 9.773438 3.601562 10.140625 3.246094 10.597656 3.246094 C 11.054688 3.246094 11.425781 3.601562 11.425781 4.042969 Z M 13.773438 4.847656 C 13.71875 3.785156 13.46875 2.839844 12.65625 2.066406 C 11.847656 1.285156 10.867188 1.042969 9.761719 0.992188 C 8.621094 0.925781 5.199219 0.925781 4.058594 0.992188 C 2.953125 1.039062 1.976562 1.285156 1.164062 2.0625 C 0.351562 2.835938 0.101562 3.78125 0.046875 4.84375 C -0.0195312 5.941406 -0.0195312 9.230469 0.046875 10.328125 C 0.0976562 11.390625 0.351562 12.332031 1.164062 13.109375 C 1.976562 13.882812 2.949219 14.128906 4.058594 14.179688 C 5.199219 14.242188 8.621094 14.242188 9.761719 14.179688 C 10.867188 14.132812 11.847656 13.886719 12.65625 13.109375 C 13.464844 12.332031 13.71875 11.390625 13.773438 10.328125 C 13.835938 9.230469 13.835938 5.941406 13.773438 4.847656 Z M 12.296875 11.503906 C 12.054688 12.085938 11.59375 12.53125 10.984375 12.765625 C 10.074219 13.113281 7.914062 13.035156 6.910156 13.035156 C 5.902344 13.035156 3.746094 13.109375 2.839844 12.765625 C 2.234375 12.535156 1.765625 12.085938 1.523438 11.503906 C 1.164062 10.628906 1.246094 8.550781 1.246094 7.585938 C 1.246094 6.621094 1.164062 4.542969 1.523438 3.667969 C 1.761719 3.089844 2.230469 2.640625 2.839844 2.40625 C 3.746094 2.0625 5.902344 2.140625 6.910156 2.140625 C 7.914062 2.140625 10.078125 2.066406 10.984375 2.40625 C 11.589844 2.640625 12.054688 3.085938 12.296875 3.667969 C 12.660156 4.542969 12.574219 6.621094 12.574219 7.585938 C 12.574219 8.550781 12.660156 10.628906 12.296875 11.503906 Z M 12.296875 11.503906 "/>
</g>
</svg>
