<?xml version="1.0" encoding="UTF-8"?>
<svg xmlns="http://www.w3.org/2000/svg" xmlns:xlink="http://www.w3.org/1999/xlink" width="12pt" height="12pt" viewBox="0 0 14 15" version="1.1">
<g id="surface1">
<path style=" stroke:none;fill-rule:nonzero;fill:#ffffff;fill-opacity:1;" d="M 12.828125 0.949219 L 0.980469 0.949219 C 0.441406 0.949219 0 1.378906 0 1.90625 L 0 13.269531 C 0 13.800781 0.441406 14.230469 0.980469 14.230469 L 12.828125 14.230469 C 13.375 14.230469 13.816406 13.800781 13.816406 13.269531 L 13.816406 1.90625 C 13.816406 1.378906 13.375 0.949219 12.828125 0.949219 Z M 4.175781 12.332031 L 2.125 12.332031 L 2.125 5.996094 L 4.175781 5.996094 Z M 3.152344 5.128906 C 2.492188 5.128906 1.964844 4.613281 1.964844 3.988281 C 1.964844 3.359375 2.492188 2.847656 3.152344 2.847656 C 3.804688 2.847656 4.339844 3.359375 4.339844 3.988281 C 4.339844 4.617188 3.808594 5.128906 3.152344 5.128906 Z M 11.851562 12.332031 L 9.804688 12.332031 L 9.804688 9.25 C 9.804688 8.511719 9.789062 7.566406 8.738281 7.566406 C 7.675781 7.566406 7.507812 8.371094 7.507812 9.195312 L 7.507812 12.332031 L 5.460938 12.332031 L 5.460938 5.996094 L 7.425781 5.996094 L 7.425781 6.859375 L 7.453125 6.859375 C 7.726562 6.363281 8.398438 5.839844 9.394531 5.839844 C 11.464844 5.839844 11.851562 7.148438 11.851562 8.859375 Z M 11.851562 12.332031 "/>
</g>
</svg>
