<?xml version="1.0" encoding="UTF-8"?>
<svg xmlns="http://www.w3.org/2000/svg" xmlns:xlink="http://www.w3.org/1999/xlink" width="11pt" height="11pt" viewBox="0 0 15 15" version="1.1">
<g id="surface1">
<path style=" stroke:none;fill-rule:nonzero;fill:#ffffff;fill-opacity:1;" d="M 13.621094 4.5 C 13.625 4.632812 13.625 4.769531 13.625 4.902344 C 13.625 9.015625 10.496094 13.753906 4.777344 13.753906 C 3.011719 13.753906 1.378906 13.242188 0 12.355469 C 0.25 12.386719 0.492188 12.394531 0.75 12.394531 C 2.203125 12.394531 3.542969 11.902344 4.613281 11.066406 C 3.246094 11.039062 2.097656 10.140625 1.707031 8.90625 C 1.898438 8.9375 2.089844 8.957031 2.292969 8.957031 C 2.570312 8.957031 2.847656 8.917969 3.109375 8.851562 C 1.683594 8.5625 0.617188 7.308594 0.617188 5.796875 L 0.617188 5.757812 C 1.027344 5.992188 1.511719 6.136719 2.023438 6.15625 C 1.1875 5.59375 0.636719 4.640625 0.636719 3.566406 C 0.636719 2.984375 0.789062 2.457031 1.058594 1.996094 C 2.589844 3.882812 4.894531 5.113281 7.472656 5.25 C 7.425781 5.019531 7.398438 4.777344 7.398438 4.539062 C 7.398438 2.820312 8.78125 1.425781 10.507812 1.425781 C 11.40625 1.425781 12.210938 1.800781 12.777344 2.40625 C 13.484375 2.273438 14.15625 2.011719 14.753906 1.65625 C 14.523438 2.378906 14.03125 2.984375 13.386719 3.371094 C 14.011719 3.304688 14.621094 3.128906 15.179688 2.886719 C 14.757812 3.503906 14.226562 4.054688 13.621094 4.5 Z M 13.621094 4.5 "/>
</g>
</svg>